<svg xmlns="http://www.w3.org/2000/svg" width="56" height="56" viewBox="0 0 56 56" fill="none">
  <path d="M13.9112 41.2394C16.3332 45.1057 16.3332 47.9897 16.3332 51.3334H20.9999C20.9999 47.7844 20.9999 43.7641 17.8662 38.7591L13.9112 41.2394ZM38.5092 7.90305C32.6129 4.45672 17.6165 2.16072 9.98886 10.045C2.1302 18.1674 4.7412 31.2131 9.9912 36.6264C10.2665 36.9111 10.5605 37.1607 10.8522 37.4034C11.0202 37.5457 11.1929 37.6741 11.3305 37.8327L14.8165 34.7294C14.5133 34.4018 14.1866 34.0969 13.8389 33.8171C13.6709 33.6771 13.4982 33.5394 13.3395 33.3784C9.4662 29.3861 7.4922 19.3387 13.3419 13.2931C19.2335 7.20072 32.1672 9.60872 36.1549 11.9374C42.4339 15.5984 45.7145 21.9894 45.7425 22.0477L49.9169 19.9594C49.7652 19.6444 46.0249 12.2851 38.5092 7.90305Z" fill="#2684FF"/>
  <path d="M21.7936 29.918C19.3903 26.978 17.6239 24.5116 18.5456 21.7373C19.1593 19.9056 20.4426 18.6456 22.3653 17.9946C25.2213 17.038 29.1786 17.6213 31.7919 19.397L34.4123 15.5376C30.5669 12.9243 25.1209 12.138 20.8696 13.5753C17.5843 14.686 15.1879 17.0636 14.1216 20.2626C12.3109 25.6946 15.9859 30.1886 18.1816 32.8743C18.5293 33.3013 18.8583 33.7003 19.1359 34.069C25.6669 42.7536 25.6669 46.921 25.6669 51.3333H30.3336C30.3336 46.5826 30.3336 41.195 22.8646 31.2643C22.516 30.8089 22.159 30.36 21.7936 29.918ZM35.3059 22.1153C39.5876 26.2313 42.3853 32.4916 44.3803 42.4176L48.9559 41.496C46.7649 30.5806 43.5519 23.5643 38.5423 18.7506L35.3059 22.1153Z" fill="#0747A6"/>
  <path d="M26.964 21.3943L24.3623 25.2676C24.4253 25.312 30.688 29.6543 33.2313 38.6236L37.7206 37.352C34.6896 26.6606 27.2766 21.6043 26.964 21.3943ZM34.272 43.071C34.762 45.7963 35 48.4983 35 51.3333H39.6666C39.6666 48.2183 39.4053 45.248 38.8663 42.245L34.272 43.071Z" fill="#2684FF"/>
</svg>