<svg xmlns="http://www.w3.org/2000/svg" width="24" height="24" viewBox="0 0 24 24" fill="none">
  <path d="M10.2463 22.1821C5.37647 21.3492 1.66992 17.1073 1.66992 12C1.66992 6.89269 5.37647 2.65078 10.2463 1.81791M10.2463 1.81791L9.18698 3.69816M10.2463 1.81791L8.39845 0.703125M13.7543 1.81791C18.6242 2.65078 22.3307 6.89269 22.3307 12C22.3307 17.1073 18.6242 21.3492 13.7543 22.1821M13.7543 22.1821L14.8137 20.3018M13.7543 22.1821L15.6022 23.2969" stroke="#374151" stroke-width="1.5" stroke-miterlimit="10" stroke-linecap="round" stroke-linejoin="round"/>
  <path d="M15.6094 10.5822V9.46875C15.6094 7.47534 13.9934 5.85938 12 5.85938C10.0066 5.85938 8.39061 7.47534 8.39061 9.46875V10.5822M12 13.5469V14.5197M15.4732 17.4844H8.52678C7.84752 17.4844 7.29688 16.9337 7.29688 16.2545V11.8121C7.29688 11.1329 7.84752 10.5822 8.52678 10.5822H15.4732C16.1525 10.5822 16.7031 11.1329 16.7031 11.8121V16.2545C16.7031 16.9337 16.1525 17.4844 15.4732 17.4844Z" stroke="#374151" stroke-width="1.5" stroke-miterlimit="10" stroke-linecap="round" stroke-linejoin="round"/>
</svg>