<svg xmlns="http://www.w3.org/2000/svg" width="17" height="20" viewBox="0 0 17 20" fill="none">
  <path d="M2.77273 4.11539L3.56818 17.1923C3.60597 17.9479 4.14091 18.5 4.84091 18.5H12.1591C12.8619 18.5 13.3869 17.9479 13.4318 17.1923L14.2273 4.11539M1.5 4.11539H15.5M5.95455 4.11539V2.48077C5.95418 2.35187 5.97862 2.22417 6.02646 2.105C6.0743 1.98584 6.1446 1.87757 6.23331 1.78642C6.32202 1.69527 6.42739 1.62305 6.54337 1.57389C6.65935 1.52474 6.78364 1.49963 6.90909 1.5H10.0909C10.2164 1.49963 10.3407 1.52474 10.4566 1.57389C10.5726 1.62305 10.678 1.69527 10.7667 1.78642C10.8554 1.87757 10.9257 1.98584 10.9735 2.105C11.0214 2.22417 11.0458 2.35187 11.0455 2.48077V4.11539M8.5 6.73077V15.8846M5.63636 6.73077L5.95455 15.8846M11.3636 6.73077L11.0455 15.8846" stroke="#E91313" stroke-width="1.5" stroke-linecap="round" stroke-linejoin="round"/>
</svg>