<svg xmlns="http://www.w3.org/2000/svg" width="17" height="20" viewBox="0 0 17 20" fill="none">
  <path d="M15.545 5.20044C15.923 4.82244 16.131 4.32044 16.131 3.78644C16.131 3.25244 15.923 2.75044 15.545 2.37244L13.959 0.786439C13.581 0.408439 13.079 0.200439 12.545 0.200439C12.011 0.200439 11.509 0.408439 11.132 0.785439L0.5 11.3844V15.7994H4.913L15.545 5.20044ZM12.545 2.20044L14.132 3.78544L12.542 5.36944L10.956 3.78444L12.545 2.20044ZM2.5 13.7994V12.2144L9.54 5.19644L11.126 6.78244L4.087 13.7994H2.5ZM0.5 17.7994H16.5V19.7994H0.5V17.7994Z" fill="#717171"/>
</svg>