<svg xmlns="http://www.w3.org/2000/svg" width="56" height="56" viewBox="0 0 56 56" fill="none">
  <path d="M38.743 25.7786C40.1641 23.3568 40.7778 20.5457 40.4953 17.752C40.0777 13.5893 37.7537 9.90963 33.955 7.39197L31.3767 11.2793C33.9877 13.0106 35.5767 15.477 35.852 18.2186C35.979 19.4929 35.8203 20.7794 35.3876 21.9846C34.955 23.1898 34.2591 24.2835 33.3507 25.186L30.5693 27.9673L34.3447 29.0756C44.2193 31.969 44.3337 41.8996 44.3337 42H49.0003C49.0003 37.8256 46.7697 29.6683 38.743 25.7786Z" fill="#0747A6"/>
  <path d="M22.166 28C27.3134 28 31.4994 23.814 31.4994 18.6667C31.4994 13.5194 27.3134 9.33337 22.166 9.33337C17.0187 9.33337 12.8327 13.5194 12.8327 18.6667C12.8327 23.814 17.0187 28 22.166 28ZM22.166 14C24.7397 14 26.8327 16.093 26.8327 18.6667C26.8327 21.2404 24.7397 23.3334 22.166 23.3334C19.5924 23.3334 17.4993 21.2404 17.4993 18.6667C17.4993 16.093 19.5924 14 22.166 14ZM25.666 30.3334H18.666C10.945 30.3334 4.66602 36.6124 4.66602 44.3334V46.6667H9.33268V44.3334C9.33268 39.186 13.5187 35 18.666 35H25.666C30.8134 35 34.9994 39.186 34.9994 44.3334V46.6667H39.666V44.3334C39.666 36.6124 33.387 30.3334 25.666 30.3334Z" fill="#2684FF"/>
</svg>