<svg xmlns="http://www.w3.org/2000/svg" width="54" height="52" viewBox="0 0 54 52" fill="none">
  <path d="M53.373 0H0.000137329V51.9332H53.373V0Z" fill="#CDCDCD"/>
  <path fill-rule="evenodd" clip-rule="evenodd" d="M41.0002 14.1808C42.0484 14.1808 42.9791 14.6566 43.5648 15.3925L26.5558 28.9007L9.69845 15.6378C10.2621 14.764 11.2787 14.1808 12.4391 14.1808H41.0002ZM9.22998 36.6675V18.0348L21.3256 27.5513L9.25491 37.0482C9.23846 36.9235 9.22998 36.7964 9.22998 36.6675ZM10.3362 38.963C10.8994 39.426 11.6347 39.7063 12.4391 39.7063H41.0002C41.6916 39.7063 42.332 39.4992 42.8559 39.1471L30.0028 28.9394L27.6915 30.775C27.0378 31.2942 26.0855 31.2963 25.4293 30.78L23.0831 28.9341L10.3362 38.963ZM31.7507 27.5513L44.1217 37.3761C44.179 37.1487 44.2094 36.9115 44.2094 36.6675V17.6568L31.7507 27.5513Z" fill="white"/>
</svg>