<svg width="76" height="24" viewBox="0 0 76 24" fill="none" xmlns="http://www.w3.org/2000/svg">
<path d="M20.6143 0.0485344V24H14.1168V14.2447H6.5819V24H0.0844288V0.0485344H6.5819V8.93023H14.1168V0.0485344H20.6143ZM32.2629 15.2821V24H25.7836V0.0485344H33.6279C40.1436 0.0485344 43.4014 2.40849 43.4014 7.12841C43.4014 9.90698 42.0425 12.0546 39.3246 13.5713L46.3135 24H38.9788L33.9009 15.2821H32.2629ZM32.2629 4.94439V10.4226H33.4641C35.7331 10.4226 36.8676 9.42164 36.8676 7.41961C36.8676 5.76946 35.7574 4.94439 33.5369 4.94439H32.2629ZM69.8252 13.4985C69.8252 12.1153 69.9041 9.87664 70.0618 6.78261H69.9162L65.0932 24H58.9233L54.0274 6.74621H53.8818C54.1124 9.59757 54.2276 11.8847 54.2276 13.6077V24H48.4946V0.0485344H57.1215L62.1083 17.0475H62.2357L67.1316 0.0485344H75.7767V24H69.8252V13.4985Z" fill="#2362EA"/>
</svg>
