<svg xmlns="http://www.w3.org/2000/svg" width="56" height="56" viewBox="0 0 56 56" fill="none">
  <path d="M28.0003 4.66663C15.3513 4.66663 4.66699 15.351 4.66699 28C4.66699 40.649 15.3513 51.3333 28.0003 51.3333C40.6493 51.3333 51.3337 40.649 51.3337 28C51.3337 15.351 40.6493 4.66663 28.0003 4.66663ZM28.0003 16.3333C32.03 16.3333 35.0003 19.3013 35.0003 23.3333C35.0003 27.3653 32.03 30.3333 28.0003 30.3333C23.973 30.3333 21.0003 27.3653 21.0003 23.3333C21.0003 19.3013 23.973 16.3333 28.0003 16.3333ZM16.0863 39.1346C18.1793 36.0546 21.67 34.0013 25.667 34.0013H30.3337C34.333 34.0013 37.8213 36.0546 39.9143 39.1346C36.9323 42.3266 32.702 44.3333 28.0003 44.3333C23.2987 44.3333 19.0683 42.3266 16.0863 39.1346Z" fill="#2684FF"/>
</svg>