<svg width="56" height="56" viewBox="0 0 56 56" fill="none" xmlns="http://www.w3.org/2000/svg">
<path d="M32.5225 16.6663H39.7606" stroke="#2684FF" stroke-width="1.5" stroke-linecap="round" stroke-linejoin="round"/>
<path d="M32.5225 23.7769H39.7606" stroke="#2684FF" stroke-width="1.5" stroke-linecap="round" stroke-linejoin="round"/>
<path d="M18.0469 30.8882H39.7612" stroke="#2684FF" stroke-width="1.5" stroke-linecap="round" stroke-linejoin="round"/>
<path d="M19.8574 38L37.0479 37.9996" stroke="#2684FF" stroke-width="1.5" stroke-linecap="round" stroke-linejoin="round"/>
<path d="M21.667 45.1111L37.0479 45.1104" stroke="#2684FF" stroke-width="1.5" stroke-linecap="round" stroke-linejoin="round"/>
<path d="M25.2859 25.5556H18.0478C17.5679 25.5556 17.1076 25.3683 16.7683 25.0349C16.4289 24.7015 16.2383 24.2493 16.2383 23.7778V16.6667C16.2383 16.1952 16.4289 15.743 16.7683 15.4096C17.1076 15.0762 17.5679 14.8889 18.0478 14.8889H25.2859C25.7658 14.8889 26.2261 15.0762 26.5654 15.4096C26.9048 15.743 27.0954 16.1952 27.0954 16.6667V23.7778C27.0954 24.2493 26.9048 24.7015 26.5654 25.0349C26.2261 25.3683 25.7658 25.5556 25.2859 25.5556Z" fill="#2684FF"/>
<path fill-rule="evenodd" clip-rule="evenodd" d="M44 9H12V34H8V9C8 6.79086 9.79086 5 12 5H44C46.2091 5 48 6.79086 48 9V35H44V9ZM42 51H16V52H8.12602C8.57006 53.7252 10.1362 55 12 55H44C45.8638 55 47.4299 53.7252 47.874 52H42V51Z" fill="#0747A6"/>
<path d="M11.4286 35C6.22321 35 2 39.1806 2 44.3333C2 49.4861 6.22321 53.6667 11.4286 53.6667C16.6339 53.6667 20.8571 49.4861 20.8571 44.3333C20.8571 39.1806 16.6339 35 11.4286 35Z" stroke="#2684FF" stroke-width="3" stroke-miterlimit="10"/>
<path d="M11.4287 38.1112V45.1112H16.143" stroke="#2684FF" stroke-width="3" stroke-linecap="round" stroke-linejoin="round"/>
<path d="M45.442 41.5556C44.8634 41.499 44.2814 41.6209 43.7755 41.9044C43.2696 42.188 42.8646 42.6194 42.616 43.1396C42.3673 43.6598 42.2872 44.2433 42.3866 44.8104C42.4859 45.3774 42.7599 45.9001 43.171 46.3071C43.5821 46.714 44.1101 46.9852 44.683 47.0836C45.2558 47.1819 45.8453 47.1026 46.3708 46.8565C46.8963 46.6103 47.3321 46.2094 47.6186 45.7087C47.905 45.2079 48.0281 44.6317 47.9709 44.059C47.9058 43.417 47.6184 42.817 47.1575 42.3608C46.6966 41.9045 46.0905 41.6201 45.442 41.5556ZM52.2314 44.3333C52.2296 44.6367 52.2071 44.9397 52.164 45.2401L54.1559 46.7866C54.2427 46.8578 54.3011 46.9571 54.3209 47.0669C54.3406 47.1767 54.3204 47.2898 54.2639 47.3863L52.3795 50.6137C52.3222 50.7092 52.2328 50.7817 52.1269 50.8183C52.021 50.8549 51.9054 50.8534 51.8005 50.8139L49.8223 50.0254C49.7132 49.9824 49.595 49.9668 49.4784 49.9801C49.3617 49.9935 49.2503 50.0352 49.1539 50.1017C48.852 50.3075 48.5348 50.4903 48.2049 50.6486C48.1012 50.6985 48.0115 50.7729 47.9437 50.8652C47.876 50.9576 47.8322 51.065 47.8163 51.1781L47.5198 53.2667C47.5003 53.377 47.4427 53.4772 47.3569 53.5502C47.2711 53.6231 47.1623 53.6643 47.0492 53.6667H43.2805C43.1692 53.6648 43.062 53.6254 42.9764 53.5551C42.8907 53.4848 42.8319 53.3877 42.8095 53.2798L42.5134 51.1942C42.4968 51.0799 42.4519 50.9714 42.3827 50.8785C42.3135 50.7855 42.2222 50.7109 42.1169 50.6612C41.7874 50.5038 41.4712 50.3205 41.1714 50.113C41.0754 50.0469 40.9642 50.0055 40.848 49.9924C40.7318 49.9794 40.6141 49.9952 40.5056 50.0384L38.5278 50.8265C38.423 50.8661 38.3075 50.8677 38.2016 50.8311C38.0957 50.7946 38.0062 50.7222 37.9489 50.6268L36.0645 47.3994C36.0079 47.303 35.9876 47.1898 36.0074 47.0799C36.0271 46.9701 36.0856 46.8708 36.1725 46.7997L37.8559 45.4913C37.9482 45.4188 38.0207 45.3247 38.0668 45.2174C38.113 45.1102 38.1314 44.9932 38.1203 44.8772C38.1044 44.6953 38.0947 44.5139 38.0947 44.332C38.0947 44.1502 38.104 43.9713 38.1203 43.7934C38.1302 43.678 38.1109 43.5621 38.0642 43.456C38.0175 43.3498 37.9449 43.2569 37.8529 43.1854L36.1703 41.877C36.0848 41.8055 36.0276 41.7066 36.0085 41.5975C35.9894 41.4884 36.0097 41.3761 36.0658 41.2804L37.9502 38.053C38.0075 37.9574 38.0969 37.885 38.2028 37.8484C38.3087 37.8117 38.4243 37.8133 38.5292 37.8528L40.5074 38.6413C40.6165 38.6843 40.7346 38.6998 40.8513 38.6865C40.9679 38.6732 41.0794 38.6314 41.1758 38.565C41.4777 38.3592 41.7949 38.1764 42.1248 38.0181C42.2285 37.9682 42.3182 37.8938 42.386 37.8014C42.4537 37.7091 42.4975 37.6016 42.5134 37.4886L42.8099 35.3999C42.8294 35.2896 42.887 35.1894 42.9728 35.1165C43.0586 35.0435 43.1674 35.0024 43.2805 35H47.0492C47.1605 35.0019 47.2677 35.0413 47.3533 35.1116C47.439 35.1819 47.4978 35.279 47.5202 35.3869L47.8163 37.4725C47.8329 37.5868 47.8778 37.6952 47.947 37.7882C48.0162 37.8812 48.1075 37.9558 48.2128 38.0054C48.5423 38.1628 48.8585 38.3462 49.1583 38.5536C49.2543 38.6198 49.3655 38.6612 49.4817 38.6742C49.5979 38.6872 49.7156 38.6714 49.8241 38.6282L51.8019 37.8401C51.9067 37.8006 52.0222 37.799 52.1281 37.8355C52.234 37.8721 52.3235 37.9444 52.3808 38.0399L54.2652 41.2673C54.3218 41.3637 54.3421 41.4769 54.3223 41.5867C54.3025 41.6965 54.244 41.7959 54.1572 41.867L52.4738 43.1754C52.3811 43.2476 52.3082 43.3417 52.2617 43.4489C52.2151 43.5562 52.1964 43.6732 52.2072 43.7895C52.2217 43.97 52.2314 44.1515 52.2314 44.3333Z" stroke="#2684FF" stroke-width="3" stroke-linecap="round" stroke-linejoin="round"/>
</svg>
