<svg xmlns="http://www.w3.org/2000/svg" width="56" height="56" viewBox="0 0 56 56" fill="none">
  <path d="M49.0003 9.33337H7.00033C6.38149 9.33337 5.78799 9.57921 5.35041 10.0168C4.91282 10.4544 4.66699 11.0479 4.66699 11.6667V44.3334C4.66699 44.9522 4.91282 45.5457 5.35041 45.9833C5.78799 46.4209 6.38149 46.6667 7.00033 46.6667H49.0003C49.6192 46.6667 50.2127 46.4209 50.6502 45.9833C51.0878 45.5457 51.3337 44.9522 51.3337 44.3334V11.6667C51.3337 11.0479 51.0878 10.4544 50.6502 10.0168C50.2127 9.57921 49.6192 9.33337 49.0003 9.33337ZM46.667 35C44.8105 35 43.03 35.7375 41.7172 37.0503C40.4045 38.363 39.667 40.1435 39.667 42H16.3337C16.3337 40.1435 15.5962 38.363 14.2834 37.0503C12.9707 35.7375 11.1902 35 9.33366 35V21C11.1902 21 12.9707 20.2625 14.2834 18.9498C15.5962 17.637 16.3337 15.8566 16.3337 14H39.667C39.667 15.8566 40.4045 17.637 41.7172 18.9498C43.03 20.2625 44.8105 21 46.667 21V35Z" fill="#0747A6"/>
  <path d="M28.0003 18.6666C22.853 18.6666 18.667 22.8526 18.667 28C18.667 33.1473 22.853 37.3333 28.0003 37.3333C33.1477 37.3333 37.3337 33.1473 37.3337 28C37.3337 22.8526 33.1477 18.6666 28.0003 18.6666ZM28.0003 32.6666C25.4267 32.6666 23.3337 30.5736 23.3337 28C23.3337 25.4263 25.4267 23.3333 28.0003 23.3333C30.574 23.3333 32.667 25.4263 32.667 28C32.667 30.5736 30.574 32.6666 28.0003 32.6666Z" fill="#2684FF"/>
</svg>