<svg xmlns="http://www.w3.org/2000/svg" width="20" height="22" viewBox="0 0 20 22" fill="none">
  <path d="M10.2721 8.27221C9.70399 8.21667 9.1324 8.33631 8.63561 8.61477C8.13882 8.89322 7.74112 9.31687 7.49696 9.82772C7.2528 10.3386 7.17411 10.9116 7.27168 11.4684C7.36924 12.0253 7.63829 12.5386 8.04197 12.9382C8.44566 13.3378 8.96426 13.6042 9.52676 13.7007C10.0893 13.7973 10.6682 13.7194 11.1842 13.4777C11.7003 13.236 12.1283 12.8424 12.4096 12.3506C12.6909 11.8588 12.8117 11.293 12.7556 10.7306C12.6916 10.1001 12.4094 9.51097 11.9568 9.06293C11.5042 8.61489 10.909 8.33553 10.2721 8.27221ZM16.9395 11C16.9377 11.2979 16.9156 11.5954 16.8733 11.8904L18.8293 13.4091C18.9145 13.479 18.9719 13.5765 18.9913 13.6844C19.0107 13.7922 18.9909 13.9033 18.9353 13.998L17.0848 17.1674C17.0286 17.2612 16.9408 17.3324 16.8368 17.3683C16.7328 17.4043 16.6193 17.4027 16.5163 17.364L14.5737 16.5896C14.4665 16.5474 14.3505 16.5322 14.2359 16.5452C14.1214 16.5583 14.0119 16.5993 13.9173 16.6646C13.6208 16.8667 13.3093 17.0462 12.9854 17.2017C12.8835 17.2507 12.7954 17.3237 12.7289 17.4144C12.6623 17.5051 12.6193 17.6106 12.6037 17.7216L12.3126 19.7727C12.2934 19.881 12.2369 19.9794 12.1526 20.051C12.0683 20.1227 11.9615 20.1631 11.8505 20.1654H8.14949C8.04026 20.1636 7.93493 20.1249 7.85086 20.0559C7.76679 19.9868 7.70898 19.8915 7.68697 19.7855L7.39623 17.7375C7.3799 17.6252 7.33581 17.5187 7.26787 17.4274C7.19994 17.3361 7.11027 17.2628 7.00683 17.2141C6.68329 17.0595 6.3728 16.8795 6.07834 16.6757C5.98406 16.6108 5.87494 16.5701 5.76081 16.5573C5.64669 16.5445 5.53114 16.56 5.42458 16.6025L3.48236 17.3764C3.37944 17.4152 3.26598 17.4168 3.16198 17.3809C3.05798 17.345 2.97011 17.274 2.91385 17.1802L1.06335 14.0109C1.00772 13.9162 0.987835 13.805 1.00725 13.6972C1.02666 13.5894 1.0841 13.4918 1.16935 13.422L2.82255 12.1371C2.91313 12.0659 2.98431 11.9735 3.02964 11.8682C3.07498 11.7629 3.09303 11.648 3.08215 11.5341C3.06658 11.3555 3.05706 11.1773 3.05706 10.9987C3.05706 10.8201 3.06614 10.6445 3.08215 10.4698C3.09184 10.3565 3.0729 10.2426 3.02706 10.1384C2.98121 10.0342 2.90989 9.94288 2.81953 9.87274L1.16719 8.58786C1.08332 8.51766 1.02709 8.42048 1.00834 8.31336C0.989592 8.20623 1.00953 8.09599 1.06465 8.00196L2.91514 4.8326C2.97134 4.7388 3.05918 4.66765 3.16319 4.63168C3.2672 4.59572 3.38069 4.59725 3.48366 4.63601L5.42631 5.41036C5.53344 5.45259 5.64948 5.46784 5.76403 5.45476C5.87858 5.44168 5.98806 5.40067 6.08266 5.33541C6.37915 5.13331 6.69069 4.95377 7.01462 4.79834C7.11646 4.74934 7.20454 4.67627 7.27109 4.58559C7.33765 4.49491 7.38062 4.38941 7.39623 4.27839L7.68741 2.2273C7.70653 2.11898 7.76307 2.02059 7.84735 1.94896C7.93163 1.87732 8.03843 1.83688 8.14949 1.83456H11.8505C11.9597 1.83643 12.065 1.87507 12.1491 1.94413C12.2332 2.01318 12.291 2.10853 12.313 2.21445L12.6037 4.26254C12.6201 4.37478 12.6642 4.48129 12.7321 4.5726C12.8 4.66391 12.8897 4.73718 12.9931 4.78591C13.3167 4.94051 13.6272 5.12054 13.9216 5.32428C14.0159 5.38921 14.125 5.42991 14.2392 5.44269C14.3533 5.45548 14.4688 5.43995 14.5754 5.39752L16.5176 4.62359C16.6205 4.58479 16.734 4.58319 16.838 4.61908C16.942 4.65496 17.0299 4.72603 17.0861 4.81975L18.9366 7.98911C18.9923 8.0838 19.0121 8.19496 18.9927 8.3028C18.9733 8.41065 18.9159 8.50817 18.8306 8.57801L17.1774 9.86288C17.0865 9.93382 17.0149 10.0262 16.9691 10.1315C16.9234 10.2368 16.905 10.3518 16.9157 10.4659C16.9299 10.6432 16.9395 10.8214 16.9395 11Z" stroke="#2684FF" stroke-width="2" stroke-linecap="round" stroke-linejoin="round"/>
</svg>