<svg xmlns="http://www.w3.org/2000/svg" width="56" height="56" viewBox="0 0 56 56" fill="none">
  <path d="M22.7952 7.53845H8.79525C8.17641 7.53845 7.58292 7.78428 7.14533 8.22187C6.70775 8.65945 6.46191 9.25295 6.46191 9.87179V23.8718C6.46191 24.4906 6.70775 25.0841 7.14533 25.5217C7.58292 25.9593 8.17641 26.2051 8.79525 26.2051H22.7952C23.4141 26.2051 24.0076 25.9593 24.4452 25.5217C24.8827 25.0841 25.1286 24.4906 25.1286 23.8718V9.87179C25.1286 9.25295 24.8827 8.65945 24.4452 8.22187C24.0076 7.78428 23.4141 7.53845 22.7952 7.53845ZM46.1286 7.53845H32.1286C31.5097 7.53845 30.9163 7.78428 30.4787 8.22187C30.0411 8.65945 29.7952 9.25295 29.7952 9.87179V23.8718C29.7952 24.4906 30.0411 25.0841 30.4787 25.5217C30.9163 25.9593 31.5097 26.2051 32.1286 26.2051H46.1286C46.7474 26.2051 47.3409 25.9593 47.7785 25.5217C48.2161 25.0841 48.4619 24.4906 48.4619 23.8718V9.87179C48.4619 9.25295 48.2161 8.65945 47.7785 8.22187C47.3409 7.78428 46.7474 7.53845 46.1286 7.53845ZM22.7952 30.8718H8.79525C8.17641 30.8718 7.58292 31.1176 7.14533 31.5552C6.70775 31.9928 6.46191 32.5863 6.46191 33.2051V47.2051C6.46191 47.824 6.70775 48.4175 7.14533 48.855C7.58292 49.2926 8.17641 49.5385 8.79525 49.5385H22.7952C23.4141 49.5385 24.0076 49.2926 24.4452 48.855C24.8827 48.4175 25.1286 47.824 25.1286 47.2051V33.2051C25.1286 32.5863 24.8827 31.9928 24.4452 31.5552C24.0076 31.1176 23.4141 30.8718 22.7952 30.8718ZM41.4619 33.2051H36.7952V37.8718H32.1286V42.5385H36.7952V47.2051H41.4619V42.5385H46.1286V37.8718H41.4619V33.2051Z" fill="#2684FF"/>
  <rect x="6.46191" y="7.53845" width="18.7385" height="18.7385" rx="2" fill="#2684FF"/>
  <rect x="29.7227" y="7.53845" width="18.7385" height="18.7385" rx="2" fill="#0747A6"/>
  <rect x="6.46191" y="30.8" width="18.7385" height="18.7385" rx="2" fill="#0747A6"/>
</svg>