<svg xmlns="http://www.w3.org/2000/svg" width="56" height="56" viewBox="0 0 56 56" fill="none">
  <path d="M9.33366 46.6666H14.0003V23.3333C14.0003 22.7145 14.2462 22.121 14.6837 21.6834C15.1213 21.2458 15.7148 21 16.3337 21H44.3337V16.3333C44.3337 15.7145 44.0878 15.121 43.6502 14.6834C43.2127 14.2458 42.6192 14 42.0003 14H34.8813C34.2933 8.76396 29.8903 4.66663 24.5003 4.66663C19.1103 4.66663 14.7073 8.76396 14.1193 14H7.00033C6.38149 14 5.78799 14.2458 5.35041 14.6834C4.91282 15.121 4.66699 15.7145 4.66699 16.3333V42C4.66699 43.2376 5.15866 44.4246 6.03383 45.2998C6.909 46.175 8.09598 46.6666 9.33366 46.6666ZM24.5003 9.33329C27.3167 9.33329 29.6757 11.34 30.217 14H18.7837C19.325 11.34 21.684 9.33329 24.5003 9.33329Z" fill="#0747A6"/>
  <path d="M49.0003 25.6666H21.0003C20.3815 25.6666 19.788 25.9125 19.3504 26.35C18.9128 26.7876 18.667 27.3811 18.667 28V46.6666C18.667 47.9043 19.1587 49.0913 20.0338 49.9665C20.909 50.8416 22.096 51.3333 23.3337 51.3333H46.667C47.9047 51.3333 49.0917 50.8416 49.9668 49.9665C50.842 49.0913 51.3337 47.9043 51.3337 46.6666V28C51.3337 27.3811 51.0878 26.7876 50.6502 26.35C50.2127 25.9125 49.6192 25.6666 49.0003 25.6666ZM35.0003 42C28.5673 42 23.3337 36.7663 23.3337 30.3333H28.0003C28.0003 34.1926 31.141 37.3333 35.0003 37.3333C38.8597 37.3333 42.0003 34.1926 42.0003 30.3333H46.667C46.667 36.7663 41.4333 42 35.0003 42Z" fill="#2684FF"/>
</svg>